<svg id="aboutus_icon" xmlns="http://www.w3.org/2000/svg" width="70" height="70" viewBox="0 0 70 70">
  <path id="Path_11675" data-name="Path 11675" d="M35,70A35,35,0,1,1,70,35,35.038,35.038,0,0,1,35,70ZM35,7.18A27.82,27.82,0,1,0,62.82,35,27.852,27.852,0,0,0,35,7.18Z"/>
  <path id="Path_11676" data-name="Path 11676" d="M35,52.72a3.593,3.593,0,0,1-3.59-3.59V36.57a3.59,3.59,0,0,1,7.18,0V49.13A3.593,3.593,0,0,1,35,52.72Z"/>
  <path id="Path_11677" data-name="Path 11677" d="M35.03,27.74a3.59,3.59,0,0,1-.04-7.18h.03a3.59,3.59,0,0,1,0,7.18Z"/>
</svg>
