<svg id="google_logo" xmlns="http://www.w3.org/2000/svg" width="96.01" height="97.97" viewBox="0 0 96.01 97.97">
  <path id="Path_11680" data-name="Path 11680" d="M96,50.07a42.271,42.271,0,0,0-1.03-10.01H48.98V58.24H75.97A23.906,23.906,0,0,1,65.96,74.13l-.09.61L80.41,86l1.01.1c9.25-8.54,14.59-21.12,14.59-36.03" fill="#4285f4"/>
  <path id="Path_11681" data-name="Path 11681" d="M48.98,97.96c13.22,0,24.33-4.35,32.44-11.86L65.96,74.13c-4.14,2.88-9.69,4.9-16.98,4.9A29.471,29.471,0,0,1,21.12,58.68l-.57.05L5.43,70.43l-.2.55A48.939,48.939,0,0,0,48.99,97.97" fill="#34a853"/>
  <path id="Path_11682" data-name="Path 11682" d="M21.12,58.67a30.262,30.262,0,0,1-1.63-9.69,31.677,31.677,0,0,1,1.58-9.69l-.03-.65L5.73,26.75l-.5.24a48.886,48.886,0,0,0-.01,43.98l15.89-12.3" fill="#fbbc05"/>
  <path id="Path_11683" data-name="Path 11683" d="M48.98,18.94a27.148,27.148,0,0,1,18.94,7.29l13.82-13.5A47.064,47.064,0,0,0,48.98,0,48.951,48.951,0,0,0,5.22,26.99l15.84,12.3A29.6,29.6,0,0,1,48.98,18.94" fill="#eb4335"/>
</svg>
