<svg id="help_icon" xmlns="http://www.w3.org/2000/svg" width="67.82" height="70" viewBox="0 0 67.82 70">
  <path id="Icon_ionic-ios-help-circle" d="M33.91,0C15.18,0,0,15.67,0,35S15.18,70,33.91,70,67.82,54.33,67.82,35,52.64,0,33.92,0h0Zm-.7,51.15a4.1,4.1,0,1,1,.07-.01h-.05Zm6.55-16.3c-2.84,1.7-3.8,2.94-3.8,5.1v1.33H30.3l-.05-1.44a7.043,7.043,0,0,1,3.85-7.4c2.75-1.7,3.91-2.78,3.91-4.86a3.99,3.99,0,0,0-4.35-3.63h-.04a4.177,4.177,0,0,0-4.35,4.01v.13h-5.8c.11-5.42,3.99-9.25,10.55-9.25,6.11,0,10.32,3.5,10.32,8.53a8.275,8.275,0,0,1-4.58,7.49h0Z"/>
</svg>
