<svg xmlns="http://www.w3.org/2000/svg" width="70" height="70.003" viewBox="0 0 70 70.003">
  <g id="history_icon" transform="translate(0 0.003)">
    <path id="Icon_awesome-history" d="M69.99,34.93A35,35,0,0,1,13.03,62.25a3.383,3.383,0,0,1-.49-4.76,2.848,2.848,0,0,1,.23-.26l1.59-1.59a3.4,3.4,0,0,1,4.5-.28,25.968,25.968,0,1,0-1.65-39.28l7.15,7.16a2.257,2.257,0,0,1,0,3.19,2.212,2.212,0,0,1-1.61.66H2.26A2.243,2.243,0,0,1,0,24.84V4.32A2.264,2.264,0,0,1,2.25,2.05a2.312,2.312,0,0,1,1.61.66l6.96,6.98A35.005,35.005,0,0,1,70,34.94ZM44.46,46.05l1.39-1.78a3.38,3.38,0,0,0-.6-4.75h0l-5.74-4.47V20.32a3.384,3.384,0,0,0-3.38-3.39H33.87a3.393,3.393,0,0,0-3.39,3.39h0V39.46l9.23,7.18a3.379,3.379,0,0,0,4.75-.6h0Z"/>
  </g>
</svg>
