<?xml version="1.0" encoding="utf-8"?>
<!-- Generator: Adobe Illustrator 25.0.0, SVG Export Plug-In . SVG Version: 6.00 Build 0)  -->
<svg version="1.1" id="Outline" xmlns="http://www.w3.org/2000/svg" xmlns:xlink="http://www.w3.org/1999/xlink" x="0px" y="0px"
	 viewBox="0 0 512 512" style="enable-background:new 0 0 512 512;" xml:space="preserve">
<g>
	<path d="M22.6,437.3c-10.8,0.1-20.1-7.6-22-18.2c-1.9-10.1,3-20.3,12.2-25c4.3-2.6,8.8-5.1,13.1-7.7c15.8-9.2,32-18.6,47.4-29
		c27.3-18.8,52.1-41,73.8-66l1.6-1.8l-1.4-2l-4.1-5.9c-2.9-4.3-5.9-8.5-8.8-12.8c-17.1-25.4-31.7-52.4-43.7-80.6
		c-5.6-11.2-0.9-24.8,10.3-30.4c0.3-0.2,0.6-0.3,0.9-0.4c3-1.4,6.2-2.1,9.5-2.1c9.2,0.1,17.4,5.8,20.9,14.3
		c11.1,25.9,24.5,50.7,40.2,74.1c0.7,1,1.4,2,2.1,2.9l1,1.3l2.1,3l2.5-2.8c31.2-44.4,53.6-94.4,65.9-147.2l0.4-3.4H153
		c-37.5,0-81.9,0-126.5-0.1c-4.9,0.1-9.8-0.9-14.3-2.8C3.1,90.1-1.7,79.9,0.6,70.1c2.1-10.5,11.3-18.1,22-18.2c3.8,0,8-0.1,13.1-0.1
		h119.8v-9.1c0-4.5,0.2-8.7-0.2-13.1c-2.6-13.1,5.3-26,18.2-29.5h9c13,3,21.2,15.8,18.7,28.8v23h131.1c6.7-0.2,13.2,2.4,17.9,7.1
		c4.2,4.5,6.4,10.5,6.1,16.7c-0.1,11.7-9.4,21.3-21.1,21.7c-4.3,0.2-8.8,0.3-14.7,0.3h-26.2l-0.5,2.4
		c-14.6,67.8-43.5,131.7-84.8,187.5l-1.5,2l1.7,1.8l4.3,4.6c3,3.2,6.2,6.6,9.1,10.1c5,5.9,6.7,13.9,4.6,21.3
		c-2.1,7.3-7.7,12.9-14.9,15.1c-2.4,0.8-4.9,1.2-7.4,1.2c-5.9-0.1-11.6-2.6-15.7-6.8c-2-1.9-3.9-3.9-5.7-5.9c-1-1-1.9-2.1-3-3.2
		l-2.1-2.3L171,333c-39.3,41.5-85.5,75.8-136.5,101.3C30.8,436.2,26.7,437.3,22.6,437.3L22.6,437.3z"/>
	<path d="M230.4,512c-1.3,0-2.7-0.1-4-0.4c-12.4-2-20.8-13.7-18.8-26.1c0.4-2.4,1.2-4.7,2.3-6.9c6.2-12.8,12.7-25.6,19-38.1
		l8.5-17.1l23.8-47.6c25.1-50.1,51-102,76.4-153c3.1-8.4,10.7-14.4,19.6-15.4c0.9-0.1,1.9-0.1,2.8-0.1c9.1,0.1,17.2,5.5,20.7,13.9
		c9.7,19.2,19.4,38.7,28.9,57.6l7.3,14.6l90.8,181.6c1.1,2.1,2.1,4.5,3.2,6.7l1.1,2.7v8.8l-0.1,0.3c-0.3,0.7-0.6,1.4-0.8,2.1
		c-2.7,9-10.5,15.4-19.8,16.3h-2c-8.7,0.3-16.8-4.6-20.4-12.5c-10.8-21-20.3-40.1-29.1-58.2c-1.8-4.6-6.5-7.5-11.5-7
		c-22.4,0-45.5,0.1-68.9,0.1c-22.2,0-45.3,0-68.7-0.1c-4.7-0.5-9.1,2.2-10.8,6.6c-9.6,19.7-19.4,39.1-28.6,57.4
		C247.6,506.3,239.5,511.7,230.4,512z M306.1,388.4h107.1l-53.6-107.1L306.1,388.4z"/>
</g>
</svg>
