<svg xmlns="http://www.w3.org/2000/svg" width="59.997" height="60.002" viewBox="0 0 59.997 60.002">
  <g id="logout_icon" transform="translate(-0.003)">
    <path id="Path_11697" data-name="Path 11697" d="M53.75,53.76H26.91V50.9a3.106,3.106,0,1,0-6.2-.02c0,1.31-.01,2.63,0,3.94a5.135,5.135,0,0,0,5.18,5.17q14.445.03,28.89,0A5.143,5.143,0,0,0,60,54.6V5.41A5.174,5.174,0,0,0,54.58,0H26.14A5.168,5.168,0,0,0,20.7,5.43V9.18a3.1,3.1,0,1,0,6.2-.02V6.24H53.74V53.76Z"/>
    <path id="Path_11698" data-name="Path 11698" d="M10.63,33.1H44.25a3.108,3.108,0,0,0,.45-6.2c-.24-.02-.47,0-.71,0H10.66c.21-.23.33-.39.48-.53,1.95-1.95,3.92-3.88,5.84-5.86a3.1,3.1,0,1,0-4.48-4.29L6.24,22.48,1.12,27.6a3.114,3.114,0,0,0,0,4.78q5.685,5.7,11.38,11.38a3.108,3.108,0,1,0,4.39-4.39c-1.91-1.9-3.81-3.81-5.71-5.71-.15-.15-.29-.31-.54-.57Z"/>
  </g>
</svg>
