<svg id="noads_icon" xmlns="http://www.w3.org/2000/svg" width="80" height="80" viewBox="0 0 80 80">
  <path id="Path_11699" data-name="Path 11699" d="M80,40.02A40,40,0,1,1,40.22,0,40.062,40.062,0,0,1,80,40.02ZM61.25,14.08a33.421,33.421,0,0,0-47.16,4.64C2.35,32.98,5.51,51.7,14.22,61.27c2.35-2.35,4.69-4.7,6.82-6.84,1.5,1.53,2.99,3.05,4.63,4.73-2.12,2.1-4.49,4.45-6.85,6.8a33.387,33.387,0,0,0,47.03-4.62c11.77-14.22,8.69-32.95-.08-42.62l-6.78,6.81c-1.52-1.52-3.03-3.02-4.61-4.59l6.86-6.86Z"/>
  <path id="Path_11700" data-name="Path 11700" d="M39.97,58.95a18.91,18.91,0,1,0,0-.01Zm1.77-19.03c0,1.98-.01,3.97,0,5.95a1.832,1.832,0,0,0,2.06,2.02c.97,0,1.93.01,2.9,0a6.371,6.371,0,0,0,5.09-2.5,8.6,8.6,0,0,0,1.67-7.13c-.54-3.33-2.61-5.59-5.59-6.06a26.753,26.753,0,0,0-4.01-.12c-1.45,0-2.11.66-2.12,2.12-.01,1.9,0,3.81,0,5.71Zm-2.06,5.99a2.19,2.19,0,0,0-.09-.43c-1.42-3.95-2.83-7.91-4.27-11.85a2.3,2.3,0,0,0-2.56-1.52,2.453,2.453,0,0,0-2.11,1.83q-1.845,5.13-3.7,10.27c-.16.45-.35.9-.47,1.36a1.846,1.846,0,0,0,1.18,2.26,1.866,1.866,0,0,0,2.32-1.08,5.927,5.927,0,0,1,.38-.97,1.172,1.172,0,0,1,.73-.52c.91-.06,1.83.05,2.73-.04,1.21-.13,2.09.08,2.27,1.48a.993.993,0,0,0,.17.36,1.847,1.847,0,0,0,2.1.79,1.91,1.91,0,0,0,1.31-1.94Z"/>
  <path id="Path_11701" data-name="Path 11701" d="M45.49,44.14V35.93a3.024,3.024,0,0,1,4.03,2.09,7.663,7.663,0,0,1,.18,3.23c-.36,2.2-1.71,3.05-4.22,2.89Z"/>
  <path id="Path_11702" data-name="Path 11702" d="M33.05,38.29c.42,1.16.76,2.12,1.14,3.16H31.91C32.28,40.42,32.63,39.46,33.05,38.29Z"/>
</svg>
