<svg id="offline_white" xmlns="http://www.w3.org/2000/svg" width="96.243" height="74.995" viewBox="0 0 96.243 74.995">
  <path id="Path_11705" data-name="Path 11705" d="M96.23,35.44a3.589,3.589,0,0,0-1.84-3.28,3.549,3.549,0,0,0-5.34,2.93c-.07,1.64-.02,3.27-.02,4.9H86.6V26.28A13.83,13.83,0,0,0,72.79,12.45H51.7c0-2.23-.01-5.87-.04-8.91a3.563,3.563,0,0,0-1.04-2.5A3.607,3.607,0,0,0,48.12,0a3.568,3.568,0,0,0-3.61,3.57c-.01,2.9-.02,6.45-.02,7.66v1.23H43.04c-6.61,0-13.23-.02-19.84,0A13.161,13.161,0,0,0,9.65,25.97c-.02,4.29,0,8.57,0,12.85V40H7.23V36.32c0-2.63-.89-4.06-2.8-4.54a3.135,3.135,0,0,0-3.03.77A4.523,4.523,0,0,0,0,35.84V53.96a3.611,3.611,0,0,0,3.65,3.61h0a3.611,3.611,0,0,0,3.56-3.61V47.4H9.63v1.32c0,4.36-.03,8.72.01,13.08A13.171,13.171,0,0,0,22.96,74.98q25.14.03,50.28,0a13.22,13.22,0,0,0,13.35-13.4c.02-4.32,0-8.64,0-12.97V47.38h2.27a1,1,0,0,1,.12.28c.02,1.43.01,4.6.04,6.02a3.6,3.6,0,1,0,7.2.07c.04-5.52.02-12.79,0-18.32ZM24.08,36.47a9.605,9.605,0,1,1,19.21.09,9.605,9.605,0,0,1-19.21-.09ZM58.61,60.54c-3.49.01-6.99,0-10.48,0H37.65a3.682,3.682,0,0,1-3.99-3.56c-.03-2.12,1.62-3.66,3.99-3.66H58.61a3.616,3.616,0,1,1,0,7.21Zm5.13-14.51a9.612,9.612,0,1,1,8.37-8.56A9.6,9.6,0,0,1,63.74,46.03Z" fill="#f1f1f1"/>
</svg>
