<svg id="passnplay_dark" xmlns="http://www.w3.org/2000/svg" width="88.74" height="88.74" viewBox="0 0 88.74 88.74">
  <path id="Path_11706" data-name="Path 11706" d="M86.24,58.7H63.7V30.04H86.24a2.5,2.5,0,0,0,0-5H63.7V2.5a2.5,2.5,0,0,0-5,0V25.04H30.05V2.5a2.5,2.5,0,0,0-5,0V25.04H2.5a2.5,2.5,0,0,0,0,5H25.05V58.7H2.5a2.5,2.5,0,0,0,0,5H25.05V86.24a2.5,2.5,0,0,0,5,0V63.7H58.7V86.24a2.5,2.5,0,0,0,5,0V63.7H86.24a2.5,2.5,0,0,0,0-5Zm-27.54,0H30.05V30.04H58.7Z"/>
  <path id="Path_11707" data-name="Path 11707" d="M78.3,88.4A10.44,10.44,0,1,1,88.74,77.96,10.448,10.448,0,0,1,78.3,88.4Zm0-15.88a5.44,5.44,0,1,0,5.44,5.44A5.446,5.446,0,0,0,78.3,72.52Z"/>
  <path id="Path_11708" data-name="Path 11708" d="M44.62,54.72A10.44,10.44,0,1,1,55.06,44.28,10.448,10.448,0,0,1,44.62,54.72Zm0-15.88a5.44,5.44,0,1,0,5.44,5.44A5.446,5.446,0,0,0,44.62,38.84Z"/>
  <path id="Path_11709" data-name="Path 11709" d="M11.08,21.18a10.434,10.434,0,1,1,0,.01Zm0-15.88a5.44,5.44,0,1,0,5.44,5.44A5.446,5.446,0,0,0,11.08,5.3Z"/>
  <path id="Path_11710" data-name="Path 11710" d="M53.82,16.04a2.5,2.5,0,0,1-1.77,4.26,2.451,2.451,0,0,1-1.76-.73l-5.55-5.54L39.2,19.57a2.5,2.5,0,1,1-3.54-3.53l5.55-5.55L35.66,4.95A2.5,2.5,0,1,1,39.2,1.41l5.54,5.55,5.55-5.55a2.5,2.5,0,1,1,3.53,3.54l-5.54,5.54Z"/>
  <path id="Path_11711" data-name="Path 11711" d="M20.16,83.51a2.5,2.5,0,0,1-1.77,4.27,2.451,2.451,0,0,1-1.76-.73L11.08,81.5,5.54,87.05a2.511,2.511,0,0,1-3.54,0,2.517,2.517,0,0,1,0-3.54l5.55-5.54L2,72.42a2.5,2.5,0,1,1,3.54-3.53l5.54,5.54,5.55-5.54a2.5,2.5,0,0,1,3.53,3.53l-5.54,5.55Z"/>
</svg>
