<svg xmlns="http://www.w3.org/2000/svg" width="70.329" height="95.01" viewBox="0 0 70.329 95.01">
  <g id="play_guest" transform="translate(0.006)">
    <path id="Path_11718" data-name="Path 11718" d="M35.02,95c-7.54-.11-15.07-.85-22.34-3.35a23.349,23.349,0,0,1-9.19-5.32A11.326,11.326,0,0,1,0,77.62a35.144,35.144,0,0,1,69.76-5.16,46.924,46.924,0,0,1,.54,5.17,10.9,10.9,0,0,1-3.39,8.64c-2.94,2.97-6.64,4.6-10.55,5.82a73.672,73.672,0,0,1-21.35,2.92Z"/>
    <path id="Path_11719" data-name="Path 11719" d="M15.17,19.94A20,20,0,1,1,35.11,39.99,20.012,20.012,0,0,1,15.17,19.94Z"/>
  </g>
</svg>
