<svg xmlns="http://www.w3.org/2000/svg" width="91.993" height="91.975" viewBox="0 0 91.993 91.975">
  <g id="playrandom_dark" transform="translate(0.008)">
    <path id="Path_11723" data-name="Path 11723" d="M42.61,29.61c.55-2.24,1.66-3.3,3.4-3.29,1.71,0,2.89,1.14,3.33,3.28,2.53,0,5.09.01,7.64-.02a1.9,1.9,0,0,0,.83-.36A22.981,22.981,0,0,1,91.7,45.86a36.4,36.4,0,0,1,.27,5.33q.03,13.83,0,27.65A12.734,12.734,0,0,1,78.89,91.96c-2.94,0-5.89-.02-8.83.01a3.685,3.685,0,0,1-3.23-1.63c-5.09-6.83-10.22-13.65-15.31-20.48a1.76,1.76,0,0,0-1.61-.81c-2.63.05-5.27.04-7.9,0a1.663,1.663,0,0,0-1.53.75C35.49,76.5,30.45,83.16,25.5,89.88a4.533,4.533,0,0,1-4.15,2.09c-2.8-.1-5.61-.02-8.42-.03A12.72,12.72,0,0,1,0,79.01q-.015-14.85,0-29.7A23,23,0,0,1,34.03,29.14a3.871,3.871,0,0,0,1.73.45c2.29.05,4.58.02,6.85.02ZM26.28,52.63c1.12,0,2.11.01,3.1,0a3.294,3.294,0,1,0,.02-6.58c-1.01-.01-2.03,0-3.12,0,0-1.14.01-2.16,0-3.18a3.283,3.283,0,1,0-6.56.03c-.01,1.02,0,2.03,0,3.15H16.78a3.3,3.3,0,1,0-.02,6.57h2.97c0,1.18-.02,2.2,0,3.23a3.281,3.281,0,1,0,6.56-.03c.02-1.02,0-2.04,0-3.2Zm45.99-9.91a3.281,3.281,0,1,0-3.21,3.33,3.311,3.311,0,0,0,3.21-3.33Zm-9.9,3.34a137.511,137.511,0,1,0-.01-.01Zm16.47,3.31a3.281,3.281,0,1,0-3.28,3.26,3.317,3.317,0,0,0,3.28-3.26Zm-9.82,3.27a3.285,3.285,0,1,0,3.25,3.29,3.289,3.289,0,0,0-3.25-3.29Z"/>
    <path id="Path_11724" data-name="Path 11724" d="M45.93,0A45.759,45.759,0,0,1,70.28,6.96c1.86,1.16,2.42,3.06,1.41,4.72s-2.96,1.98-4.85.88Q45.975.44,25.12,12.58c-1.87,1.09-3.84.73-4.84-.93A3.3,3.3,0,0,1,21.64,7,45.913,45.913,0,0,1,45.93,0Z"/>
    <path id="Path_11725" data-name="Path 11725" d="M59.23,22.96a11.057,11.057,0,0,1-1.54-.49,26.222,26.222,0,0,0-23.36,0,3.307,3.307,0,0,1-4.3-.99,3.158,3.158,0,0,1,.43-4.2,9.422,9.422,0,0,1,2.48-1.39,32.6,32.6,0,0,1,27.51.63,3.27,3.27,0,0,1,2.01,3.84,3.4,3.4,0,0,1-3.23,2.61Z"/>
  </g>
</svg>
