<svg xmlns="http://www.w3.org/2000/svg" width="130.005" height="130.006" viewBox="0 0 130.005 130.006">
  <g id="play_random" transform="translate(0.005)">
    <path id="Path_11720" data-name="Path 11720" d="M60.22,41.85c.77-3.16,2.35-4.66,4.81-4.64,2.42.01,4.08,1.61,4.71,4.63,3.58,0,7.19.02,10.8-.02a2.742,2.742,0,0,0,1.17-.51A32.473,32.473,0,0,1,129.6,64.82a49.737,49.737,0,0,1,.38,7.53q.045,19.53.01,39.07c0,10.67-7.84,18.52-18.49,18.54-4.16,0-8.32-.03-12.48.02a5.247,5.247,0,0,1-4.57-2.3c-7.2-9.66-14.44-19.28-21.63-28.94a2.466,2.466,0,0,0-2.27-1.14c-3.72.06-7.45.06-11.17,0a2.356,2.356,0,0,0-2.16,1.06c-7.05,9.47-14.17,18.88-21.17,28.38A6.412,6.412,0,0,1,30.19,130c-3.96-.14-7.93-.02-11.89-.04A18.034,18.034,0,0,1,.01,111.65q-.03-20.985,0-41.97a32.489,32.489,0,0,1,48.08-28.5,5.606,5.606,0,0,0,2.44.64c3.23.07,6.47.03,9.68.03ZM37.15,74.38c1.59,0,2.98.01,4.38,0a4.651,4.651,0,1,0,.02-9.29c-1.43-.02-2.86,0-4.4,0,0-1.61.02-3.05,0-4.49a4.639,4.639,0,1,0-9.27.04c-.02,1.44,0,2.88,0,4.45H23.72c-3.05.02-5.15,1.94-5.12,4.7.03,2.68,2.12,4.58,5.09,4.6h4.2c0,1.66-.02,3.11,0,4.56a4.636,4.636,0,1,0,9.27-.04c.03-1.44,0-2.89,0-4.52Zm64.99-14.01a4.641,4.641,0,1,0-4.54,4.71A4.683,4.683,0,0,0,102.14,60.37ZM88.15,65.09a189.129,189.129,0,1,1,.01.01Zm23.27,4.68a4.605,4.605,0,1,1,0-.01ZM97.54,74.39a4.659,4.659,0,1,1,0,.01Z" fill="#fff"/>
    <path id="Path_11721" data-name="Path 11721" d="M64.9,0A64.671,64.671,0,0,1,99.31,9.84c2.63,1.64,3.43,4.32,1.99,6.67-1.42,2.33-4.19,2.8-6.85,1.25Q64.975.63,35.5,17.78c-2.65,1.54-5.43,1.04-6.84-1.31-1.39-2.32-.62-4.99,1.93-6.58A64.9,64.9,0,0,1,64.9,0Z" fill="#fff"/>
    <path id="Path_11722" data-name="Path 11722" d="M83.69,32.45a17.292,17.292,0,0,1-2.18-.69,37.045,37.045,0,0,0-33,0,4.644,4.644,0,0,1-6.07-1.4,4.474,4.474,0,0,1,.6-5.94,13.437,13.437,0,0,1,3.51-1.97,46.035,46.035,0,0,1,38.87.89,4.61,4.61,0,0,1,2.84,5.42,4.774,4.774,0,0,1-4.57,3.68Z" fill="#fff"/>
  </g>
</svg>
