<svg xmlns="http://www.w3.org/2000/svg" width="65.123" height="70.009" viewBox="0 0 65.123 70.009">
  <g id="privacypolicy_icon" transform="translate(0.002)">
    <path id="Path_11728" data-name="Path 11728" d="M62.04,11.62A55.238,55.238,0,0,1,44.69,6.71,67.27,67.27,0,0,1,34.49.89C34.01.55,33.47.3,32.96,0h-.83c-.64.39-1.31.74-1.92,1.16a61.858,61.858,0,0,1-22.29,9.7c-1.62.33-3.28.52-4.93.76A3.182,3.182,0,0,0,0,15.07c.08,3.12.16,6.25.42,9.36A75.941,75.941,0,0,0,2.98,38.68a52.016,52.016,0,0,0,8.85,18.21A36.882,36.882,0,0,0,30.69,69.72a6.2,6.2,0,0,0,3.74,0c10.06-3.03,17.45-9.33,22.56-18.41a61.626,61.626,0,0,0,6.65-19.23,90.8,90.8,0,0,0,1.48-16.94,3.181,3.181,0,0,0-3.07-3.51ZM44.85,45.87a3,3,0,0,1-1.1,2.28,3.886,3.886,0,0,1-1.55.73H22.9a1.468,1.468,0,0,0-.14-.06,3.053,3.053,0,0,1-2.39-2.22,2.876,2.876,0,0,1-.12-.77c-.01-5.15-.01-5.77,0-10.93a3.071,3.071,0,0,1,.32-1.29,2.979,2.979,0,0,1,2.81-1.74h1.46V28.93a7.937,7.937,0,0,1,.64-3.26,7.673,7.673,0,0,1,8.57-4.43,7.554,7.554,0,0,1,6.12,6.87c.08,1.13.04,2.27.05,3.4v.36a14.115,14.115,0,0,1,1.46.01,4.448,4.448,0,0,1,1.4.31,2.983,2.983,0,0,1,1.75,2.9v8.09c0,.89.02,1.79,0,2.68Z"/>
    <path id="Path_11729" data-name="Path 11729" d="M35.63,40.4a3.08,3.08,0,1,1-3.07-3.09A3.11,3.11,0,0,1,35.63,40.4Z"/>
    <path id="Path_11730" data-name="Path 11730" d="M37.3,31.86H27.76a22.65,22.65,0,0,1,.2-4.29,4.756,4.756,0,0,1,9.34.89c.05,1.12,0,2.24,0,3.39Z"/>
  </g>
</svg>
