<svg id="share_app" xmlns="http://www.w3.org/2000/svg" width="70" height="70" viewBox="0 0 70 70">
  <path id="Path_11733" data-name="Path 11733" d="M35,0A35,35,0,1,0,70,35,35.045,35.045,0,0,0,35,0ZM52.18,46.56a8.34,8.34,0,0,1-7.04,5.97,8.358,8.358,0,0,1-8.26-3.28,8.49,8.49,0,0,1-1.34-8.45.372.372,0,0,0-.16-.44c-1.51-.91-3.01-1.84-4.51-2.77-.27-.17-.55-.33-.83-.5-.09.09-.18.17-.26.25a7.328,7.328,0,0,1-11.97-2.72,13.444,13.444,0,0,1-.37-1.42,4.787,4.787,0,0,1-.11-1v-.09a8.072,8.072,0,0,1,.07-.98h0a7.325,7.325,0,0,1,11.65-4.95c.56.44,1.06.98,1.61,1.49h.04c2.38-1.1,4.75-2.2,7.13-3.29.2-.09.2-.21.17-.38a5.8,5.8,0,0,1,3.18-6.01,12.482,12.482,0,0,1,1.76-.57,2.075,2.075,0,0,1,.55-.07h.62a2.521,2.521,0,0,1,.48.06,5.841,5.841,0,0,1,5.1,5.83,5.913,5.913,0,0,1-.07.93,5.853,5.853,0,0,1-8.57,4.22,18.094,18.094,0,0,1-1.81-1.35.382.382,0,0,0-.28.05q-3.405,1.575-6.81,3.14a.372.372,0,0,0-.26.49,6.482,6.482,0,0,1-.23,3.57c-.08.24-.01.34.19.45,1.07.65,2.13,1.31,3.2,1.97.7.43,1.4.86,2.16,1.33.16-.18.3-.36.46-.52a8.481,8.481,0,0,1,5.12-2.44,8.81,8.81,0,0,1,9.39,11.48Z"/>
</svg>
