<svg xmlns="http://www.w3.org/2000/svg" width="69.917" height="70.002" viewBox="0 0 69.917 70.002">
  <g id="shop_icon" transform="translate(-0.003 0.002)">
    <path id="Path_11734" data-name="Path 11734" d="M69.91,24.33v.55a2.84,2.84,0,0,1-.11.71.235.235,0,0,1-.02.08,11.107,11.107,0,0,1-12.47,9.25,11.643,11.643,0,0,1-4.99-1.99A11.158,11.158,0,0,1,34.9,34.88a10.935,10.935,0,0,1-9.21,3.25,11.061,11.061,0,0,1-8.19-5.18c-.25.15-.45.27-.64.39A11.061,11.061,0,0,1,.78,28.26a7.251,7.251,0,0,1,.14-6.8c1.86-3.39,3.5-6.9,5.17-10.38A2.382,2.382,0,0,1,8.53,9.55q26.1.045,52.2-.01a3.063,3.063,0,0,1,3.26,2c1.82,3.97,3.77,7.86,5.69,11.79a2.292,2.292,0,0,1,.24,1.03Z"/>
    <path id="Path_11735" data-name="Path 11735" d="M12.5,70a15.1,15.1,0,0,1-2.54-.7,6.254,6.254,0,0,1-3.67-6.12V39.87c0-1.61.65-2.22,2.25-1.98a14.843,14.843,0,0,0,5.02-.02,13.714,13.714,0,0,0,1.91-.49,2.062,2.062,0,0,1,2.2.45,13.545,13.545,0,0,0,6.51,3.12,13.9,13.9,0,0,0,9.35-1.28,2.663,2.663,0,0,1,2.75,0,14.4,14.4,0,0,0,15.64-1.68,2.446,2.446,0,0,1,2.62-.56,13.084,13.084,0,0,0,6.6.46,4.926,4.926,0,0,1,.54-.05,1.56,1.56,0,0,1,1.84,1.68c.02,1.46,0,2.92,0,4.37q0,9.6,0,19.21a6.535,6.535,0,0,1-2.61,5.58,5.784,5.784,0,0,1-3.01,1.18,4.158,4.158,0,0,0-.59.13H55.26a1.976,1.976,0,0,1-1.24-2.11q.03-9.81,0-19.62c0-1.51-.55-2.07-2.05-2.08l-14.9-.06c-1.66,0-2.19.53-2.19,2.22V67.75c0,1.4-.23,1.75-1.5,2.23H12.5Zm9.69-11.2h4.44c1.29,0,1.91-.58,1.91-1.86.02-2.98.02-5.97,0-8.95,0-1.31-.62-1.9-1.95-1.91H17.77c-1.34,0-1.95.61-1.96,1.97-.01,2.92,0,5.83,0,8.75,0,1.41.6,1.99,1.99,2h4.37Z"/>
    <path id="Path_11736" data-name="Path 11736" d="M34.91,6.37H8.88c-.27,0-.55,0-.82-.02A1.558,1.558,0,0,1,6.73,4.11,6.286,6.286,0,0,1,12.23.02,6.262,6.262,0,0,1,12.98,0H56.83a6.392,6.392,0,0,1,6.21,3.97,1.606,1.606,0,0,1-1.49,2.39c-.36.02-.73,0-1.09,0H34.91Z"/>
  </g>
</svg>
