<svg xmlns="http://www.w3.org/2000/svg" width="70.005" height="70.008" viewBox="0 0 70.005 70.008">
  <g id="skin_icon" transform="translate(0.005 -0.002)">
    <path id="Path_11740" data-name="Path 11740" d="M70,8.35c-1.08,5.6-4.42,9.96-7.94,14.19A151.275,151.275,0,0,1,44.47,39.85L30.93,26.31c2.12-2.5,4.28-5.12,6.52-7.66A100.4,100.4,0,0,1,50.98,5.46,27.962,27.962,0,0,1,59.64.51,8.751,8.751,0,0,1,64.68.27a6.919,6.919,0,0,1,5.18,5.51c.04.17.1.34.14.51V8.34Z"/>
    <path id="Path_11741" data-name="Path 11741" d="M9.19,70c-1.36-.23-2.75-.38-4.09-.7a27.356,27.356,0,0,1-3.75-1.22,1.944,1.944,0,0,1-.81-3.19c2.34-2.48,3.03-5.52,3.19-8.77A25.393,25.393,0,0,1,4.8,48.99c2.81-8.06,12.58-12.32,20.04-8.6a12.577,12.577,0,0,1,7.41,11.3c.27,7.27-3.18,12.47-9.61,15.72a24.765,24.765,0,0,1-9.09,2.48c-.22.02-.44.08-.67.12H9.19Z"/>
    <path id="Path_11742" data-name="Path 11742" d="M41.08,42.75c-1.74,1.42-3.55,2.9-5.41,4.42a17.775,17.775,0,0,0-11.85-11.6c1.48-1.95,2.95-3.88,4.36-5.73C32.48,34.14,36.76,38.42,41.08,42.75Z"/>
  </g>
</svg>
