<svg xmlns="http://www.w3.org/2000/svg" width="49.999" height="38.807" viewBox="0 0 49.999 38.807">
  <g id="soundoff_white" transform="translate(0 0.004)">
    <path id="Path_11746" data-name="Path 11746" d="M10.09,10.86V27.94c0,.65-.13.76-.76.76H4.43A4.242,4.242,0,0,1,.09,25.24,2.185,2.185,0,0,0,0,25.01V13.78c.07-.21.13-.43.19-.65a4.22,4.22,0,0,1,3.9-3.03c1.79-.03,3.58,0,5.37,0,.5,0,.63.18.63.76Z" fill="#fff"/>
    <path id="Path_11747" data-name="Path 11747" d="M29.48,2.58v33.6a2.352,2.352,0,0,1-2.64,2.62c-3.27-.03-2.39.29-5.04-1.73-2.71-2.06-5.41-4.14-8.13-6.2a1.076,1.076,0,0,1-.48-.97V8.91a1.066,1.066,0,0,1,.48-.97Q18.425,4.34,23.14.7A2.915,2.915,0,0,1,25.19,0c.58.03,1.16,0,1.74,0a2.334,2.334,0,0,1,2.55,2.56Z" fill="#fff"/>
    <path id="Path_11748" data-name="Path 11748" d="M49.34,23.92a2.382,2.382,0,0,1-.07,3.36,2.339,2.339,0,0,1-1.65.67,2.45,2.45,0,0,1-1.72-.72l-3.72-3.88-3.72,3.88a2.43,2.43,0,0,1-1.73.72,2.333,2.333,0,0,1-1.64-.67,2.381,2.381,0,0,1-.07-3.36l3.86-4.02-3.86-4.01a2.383,2.383,0,1,1,3.44-3.3l3.72,3.88,3.72-3.88a2.383,2.383,0,1,1,3.44,3.3L45.48,19.9l3.86,4.02Z" fill="#fff"/>
  </g>
</svg>
