<svg xmlns="http://www.w3.org/2000/svg" width="50.01" height="39.081" viewBox="0 0 50.01 39.081">
  <g id="soundon_white" transform="translate(0.01 0.004)">
    <path id="Path_11753" data-name="Path 11753" d="M0,13.88c.06-.22.12-.43.19-.65a4.253,4.253,0,0,1,3.93-3.05c1.8-.03,3.61-.01,5.41,0,.49,0,.62.17.62.76V28.16c0,.64-.13.77-.77.77H4.45A4.277,4.277,0,0,1,.07,25.45c-.02-.08-.06-.15-.08-.23V13.89Z" fill="#fff"/>
    <path id="Path_11754" data-name="Path 11754" d="M29.69,19.54V36.43a2.372,2.372,0,0,1-2.66,2.64c-3.29-.02-2.41.3-5.08-1.73-2.73-2.08-5.45-4.17-8.19-6.25a1.091,1.091,0,0,1-.49-.98q.015-10.575,0-21.14a1.1,1.1,0,0,1,.48-.98Q18.535,4.36,23.29.7A3.028,3.028,0,0,1,25.36,0c.58.03,1.17,0,1.76,0a2.362,2.362,0,0,1,2.57,2.59V19.53Z" fill="#fff"/>
    <path id="Path_11755" data-name="Path 11755" d="M50,20.51a23.508,23.508,0,0,1-7.04,16.1,2.343,2.343,0,1,1-3.32-3.3,19.848,19.848,0,0,0,4.06-5.98A19.6,19.6,0,0,0,39.98,6.14,4.412,4.412,0,0,1,39,4.72a2.241,2.241,0,0,1,1.01-2.66,2.309,2.309,0,0,1,2.87.35,23.638,23.638,0,0,1,4.78,6.73A25.246,25.246,0,0,1,50,20.51Z" fill="#fff"/>
    <path id="Path_11756" data-name="Path 11756" d="M40.64,19.21a15.087,15.087,0,0,1-3.92,10.36,2.3,2.3,0,0,1-2.71.61,2.357,2.357,0,0,1-1.39-2.32,2.719,2.719,0,0,1,.8-1.63,9.961,9.961,0,0,0,2.52-6.8,9.851,9.851,0,0,0-2.53-6.59,2.484,2.484,0,0,1-.73-2.27,2.227,2.227,0,0,1,1.64-1.76,2.194,2.194,0,0,1,2.36.66,14.463,14.463,0,0,1,3.75,7.68c.13.78.17,1.58.22,2.06Z" fill="#fff"/>
  </g>
</svg>
