<svg xmlns="http://www.w3.org/2000/svg" width="69.996" height="70.001" viewBox="0 0 69.996 70.001">
  <g id="termscond_icon" transform="translate(-0.004 0.001)">
    <path id="Path_11758" data-name="Path 11758" d="M20.06,70H18.97a2.466,2.466,0,0,1-1.62-2.02q-1.425-8.205-2.88-16.42Q11.695,35.825,8.93,20.08a2.106,2.106,0,0,1,1.87-2.71c1.21-.22,2.42-.41,3.63-.62l44.19-7.8c1.71-.3,2.59.33,2.88,2.03q1.455,8.34,2.93,16.69,2.37,13.485,4.76,26.97c.24,1.38.54,2.76.81,4.13v1.09a2.685,2.685,0,0,1-2.35,1.67c-4.44.74-8.88,1.55-13.32,2.33Q39.3,66.515,24.28,69.17c-1.4.25-2.8.54-4.2.81ZM55.48,34.54c-.11.01-.31.02-.51.05q-5.91,1.035-11.83,2.09-9.945,1.755-19.9,3.5a2.131,2.131,0,0,0-2.02,2.36,2.1,2.1,0,0,0,2.64,1.71c1.35-.23,2.69-.47,4.03-.71q10.725-1.89,21.44-3.79c2.24-.4,4.48-.78,6.72-1.22a2,2,0,0,0,1.57-2.18,2.062,2.062,0,0,0-2.14-1.83ZM22.05,36.23c1.06-.18,2.34-.4,3.62-.62l20.57-3.63c2.67-.47,5.33-.93,8-1.41a2.137,2.137,0,0,0,1.94-1.74,2.012,2.012,0,0,0-2.36-2.34c-1.73.24-3.45.58-5.18.88q-11.085,1.95-22.18,3.92c-1.61.28-3.23.56-4.84.85A2.074,2.074,0,0,0,19.8,34.4a2.1,2.1,0,0,0,2.26,1.83Zm2.77,16.16c.17-.02.46-.06.75-.11q7.2-1.26,14.39-2.53c2.13-.37,4.26-.74,6.39-1.13a2.088,2.088,0,0,0,1.9-1.85c.15-1.56-1.07-2.49-2.82-2.17q-7.155,1.275-14.32,2.54c-2.29.4-4.58.79-6.85,1.23a1.963,1.963,0,0,0-1.6,2.27A2.058,2.058,0,0,0,24.82,52.39Z"/>
    <path id="Path_11759" data-name="Path 11759" d="M47.38,6.77C33.74,9.17,20.1,11.58,6.36,14c.31-1.8.61-3.47.9-5.15.39-2.22.79-4.44,1.17-6.66C8.74.38,9.58-.24,11.38.08Q25.225,2.585,39.05,5.11l7.79,1.41c.17.03.35.08.52.12a.5.5,0,0,0,.02.12Z"/>
    <path id="Path_11760" data-name="Path 11760" d="M10.76,54.13c-1.99-.35-3.89-.68-5.79-1.01-.94-.16-1.88-.34-2.82-.49C.41,52.36-.23,51.47.08,49.72q2.4-13.68,4.81-27.37c.01-.08.05-.16.22-.26,1.88,10.64,3.75,21.28,5.65,32.05Z"/>
  </g>
</svg>
