<svg id="tryagain_icon" xmlns="http://www.w3.org/2000/svg" width="70" height="70" viewBox="0 0 70 70">
  <path id="Path_11762" data-name="Path 11762" d="M35,0A35,35,0,1,0,70,35,35.045,35.045,0,0,0,35,0ZM52.45,44.02a18.516,18.516,0,0,1-33.7-15.31c3.08-7.19,8.77-11,16.61-11.4A17.61,17.61,0,0,1,45.82,20.2c.09.06.19.1.34.18-.04-.86-.09-1.65-.11-2.44a2.221,2.221,0,1,1,4.44-.15c.15,2.77.3,5.55.43,8.33a2.18,2.18,0,0,1-1.99,2.32c-.63.07-1.26.08-1.89.11-2.22.12-4.45.25-6.67.33a2.186,2.186,0,0,1-2.27-2.05,2.215,2.215,0,0,1,1.86-2.34,7.53,7.53,0,0,1,.83-.07c.98-.05,1.96-.11,2.94-.16a.674.674,0,0,1-.01-.1,1.431,1.431,0,0,0-.15-.11,13.7,13.7,0,0,0-10.81-1.97A14.083,14.083,0,1,0,48.48,42.03a2.225,2.225,0,1,1,3.97,1.99Z"/>
</svg>
